<svg width="246" height="328" viewBox="0 0 246 328" fill="none" xmlns="http://www.w3.org/2000/svg">
<g id="sectores-medellin">
<g id="noroccidental">
<path id="robledo" fill-rule="evenodd" clip-rule="evenodd" d="M43.4941 111.047L49.5807 107.334L54.2458 107.941L56.0344 103.95L56.3277 98.1306L58.2896 98.8348L60.1764 98.3182L65.1868 101.44H66.2212L67.143 99.8456L72.409 102.522L75.6799 102.737L76.9354 104.552L79.9144 105.143L81.755 106.942H84.8439L87.5759 109.274L89.0148 110.86L90.1432 113.227L92.3204 115.625L96.1301 119.561L99.3577 121.794L102.347 123.459L104.15 124.882L105.216 126.124L105.856 128.566L108.085 130.431L108.944 132.761L112.158 134.582L115.404 136.953L121.029 138.348L124.733 138.501L126.962 138.185L132.203 136.757L133.133 135.063L135.805 128.459L136.7 124.074L131.251 123.32L126.406 120.759L126.822 118.059L128.639 114.138L120.015 107.655L119.937 105.406L122.394 102.42L122.718 100.832L122.471 99.6832L123.974 98.202L122.68 96.7809L126.286 93.2075L128.4 95.2841L130.587 96.7414L133.156 94.2276L130.468 91.6032L132.654 90.1786L132.833 88.7043L135.826 89.4668H137.107L137.048 88.5788L135.387 87.976L134.416 88.2805L131.539 85.9332L129.918 86.0469L127.2 83.2001L126.055 83.4382L125.007 82.2601L123.028 81.9124L118.848 79.4216L114.702 78.7735L110.79 76.6401L110.13 75.4184V73.7128H108.965L108.009 72.2656L106.096 71.2837L104.222 69.2711L104.946 67.6915L105.17 64.886L107.435 63.6604L108.574 62.4851L106.112 60.5017L104.303 60.2581L103.059 59.2092L103.075 57.9566L102.143 56.7321H101.162L100.81 57.4235L99.6423 58.0806L98.7466 57.4272L97.01 55.4286L96.0189 53.527H94.8819L93.4285 54.8886L92.5082 55.0538L90.9984 53.973L90.4552 55.5231L88.8357 55.3599L88.356 55.934L87.3938 56.0494L85.8855 55.6705L83.7733 55.9834L83.5739 57.8564H81.9371L81.0298 58.3493V59.6506L80.6917 60.5637L79.848 61.8567L78.6777 62.6627H75.2248L74.8145 64.021L73.6515 64.4857L73.0794 63.9495H72.4365L71.7213 64.5393H69.8966L68.5285 65.8965L67.533 66.2183L64.4196 65.7961L63.6293 65.348L62.4028 64.2364L61.9202 62.8602L59.337 60.0147V58.8119L58.7967 58.0183L57.313 58.5539L56.7365 58.1935L55.4074 58.8321L54.5188 58.6775L51.7854 61.5376H51.3953L50.6975 61.1213L50.254 61.363L49.9824 62.5939L49.0534 62.1447L48.7139 62.375L48.5102 64.0947L47.8543 65.17L45.3607 67.1086L43.6963 69.2641L41.704 71.1774L39.3925 72.1471L38.9157 72.6941L38.803 73.3181L38.9605 74.5356L38.66 75.1501L37.2759 76.5324L35.4989 77.3941L33.9183 77.9765L31.9131 78.4145L26.9099 78.2006L24.9364 78.3183L23.9887 78.7292L23.3963 79.4143L22.6566 80.3499L21.3752 81.3098L19.812 82.0341L18.0407 82.4964V84.8527L18.4712 86.691L19.5938 89.24L19.0188 90.7126L18.6042 91.1566L19.9897 92.0709L21.3737 92.9328L21.6367 94.3327L23.119 95.6129L24.0479 95.8744L25.4363 95.7543L24.0638 101.204L25.653 102.45L27.4069 104.26L29.3198 105.637L30.0219 105.949H30.9711L31.2817 106.992L30.7934 109.94L30.1635 111.606L29.8731 112.165V112.478L30.2068 112.652L31.1719 112.577L32.5271 112.276L33.8967 112.057L34.7837 111.733L35.6188 111.581L37.679 111.383L38.6889 110.553L43.4941 111.047Z" fill="#F79FBE" stroke="#646464" stroke-width="1.06667"/>
<path id="castilla" fill-rule="evenodd" clip-rule="evenodd" d="M135.334 51.4376L128.971 71.4359L123.601 69.9262L121.487 75.3526L118.848 79.4216L123.028 81.9124L125.007 82.2601L126.055 83.4382L127.2 83.2001L129.918 86.0469L131.539 85.9332L134.416 88.2805L135.387 87.976L137.048 88.5788L137.107 89.4668H135.826L132.833 88.7043L132.654 90.1786L130.468 91.6032L133.156 94.2276L130.587 96.7414L128.4 95.2841L126.286 93.2075L122.68 96.7809L123.974 98.202L122.471 99.6832L122.718 100.832L122.394 102.42L119.937 105.406L120.015 107.655L128.639 114.138L126.822 118.059L126.406 120.759L131.251 123.32L136.7 124.074L145.372 87.8706L145.455 86.8807L145.672 83.6112L145.855 82.6768L146.22 81.796L146.756 81.1318L149.356 78.9786L150.457 77.9534L151.183 76.8082L151.611 75.0294L151.912 71.8112L152.142 70.5854L152.676 69.2464L153.687 67.8982L155.134 66.7344L156.262 65.6208L157.048 64.2498L157.992 60.3806L158.477 59.3563L159.152 58.5792L160.111 57.8347L161.701 56.9749L163.19 56.0534L164.384 55.0872L165.104 54.1132L165.736 51.7521L166.241 50.4409L168.406 46.3611L169.045 43.7435L170.796 39.5501L171.452 36.9042L171.275 34.4159L170.834 30.5097L170.971 26.0289L170.358 23.7942L170.407 22.6626L170.847 21.737L173.398 18.4884L170.93 16.9811L169.943 16.6641L155.686 17.3978L152.452 15.7139L150.749 15.2414L148.974 15.7014L147.725 16.8188L145.887 16.6922L143.092 19.8239L139.35 20.365L138.114 25.7022L137.888 31.8418L138.982 32.0201L139.009 33.8328L144.59 33.8168L144.593 33.8328L145.414 37.8798L142.367 44.1612L141.395 43.7784L140.272 46.5525L137.408 46.1712L135.889 47.9116L136.579 49.8487L135.334 51.4376Z" fill="#F79FBE" stroke="#646464" stroke-width="1.06667"/>
<path id="12-de-octubre" fill-rule="evenodd" clip-rule="evenodd" d="M139.009 33.8328L138.982 32.0201L137.888 31.8418L138.114 25.7022L139.35 20.365L130.54 19.7448L128.284 19.0262L126.786 20.2314L122.839 20.7793L116.836 23.6362L113.169 22.9651L109.334 23.2472L107.739 22.3791L105.689 23.4677V25.0935L104.576 26.4685L104.41 27.1291L106.664 29.0057L107.093 29.6654L106.827 31.4085L108.692 32.5802L111.2 33.7663L111.602 35.7178L111.254 37.2744L110.718 38.6094L109.831 38.7639L108.337 38.4163L106.977 38.648L106.204 39.2197L105.641 40.2564V43.5477L106.321 44.3767L106.158 45.7372L104.955 46.9409L104.592 49.8807L105.544 50.6171L105.702 51.5055L104.553 52.7758L104.287 54.4146L102.913 54.9677L101.561 55.9511L101.162 56.7321H102.143L103.075 57.9566L103.059 59.2092L104.303 60.2581L106.112 60.5017L108.574 62.4851L107.435 63.6604L105.17 64.886L104.946 67.6915L104.222 69.2711L106.096 71.2837L108.009 72.2656L108.965 73.7128H110.13V75.4184L110.79 76.6401L114.702 78.7735L118.848 79.4216L121.487 75.3526L123.601 69.9262L128.971 71.4358L135.334 51.4376L136.579 49.8487L135.889 47.9116L137.408 46.1712L140.272 46.5524L141.395 43.7783L142.367 44.1612L145.414 37.8798L144.593 33.8328H139.009Z" fill="#F79FBE" stroke="#646464" stroke-width="1.06667"/>
</g>
<g id="centroriental">
<path id="villa-hermosa" fill-rule="evenodd" clip-rule="evenodd" d="M239.36 188.714L239.116 187.042L236.165 182.922L236.052 181.612L230.373 181.519L228.892 182.83L226.918 183.882L225.042 185.921L222.91 185.715L220.82 186.124L219.494 184.426L218.441 183.655L218.184 182.398L217.452 182.486L216.796 181.441L217.054 179.864L216.524 178.387L211.742 174.736L211.208 173.36L209.469 171.205L211.383 168.822L211.005 167.663L211.657 165.706L215.31 162.464L215.666 160.768L216.953 160.002L219.486 159.87L219.77 159.381L215.83 156.124L215.709 154.424L215.281 152.386L213.498 150.866L213.078 148.847L212.297 147.724L212.455 146.326L213.413 145.676L214.331 145.778L216.434 144.548L217.887 143.187H215.943L214.849 143.651L213.476 142.628L210.433 142.383L208.4 141.82L207.503 141.172L207.674 139.866L206.287 138.793L206.015 136.176L205.046 135.109V133.052L200.071 132.471L197.636 131.013L195.265 131.406L194.69 133.506H192.016L190.383 132.327L187.455 130.705L185.034 130.422L181.826 132.603L177.559 134.543L176.728 134.657L175.55 134.378L174.537 133.654L172.056 132.487L171.594 133.609L163.593 145.452L177.181 155.002L176.627 156.687L177.111 157.601V158.384L177.319 158.815V159.454L179.292 159.887L178.306 162.776L175.68 167.083L174.493 167.826L178.559 172.424L179.648 174.535L182.806 175.239L185.228 175.501H189.254L191.807 177.072L193.1 177.347L195.125 180.721L198.804 181.419L199.806 182.909L199.367 184.287L201.653 187.862L204.668 188.824L206.269 189.893L208.381 193.308L209.813 193.334L212.323 196.806L213.395 199.246L214.648 198.202L216.182 198.535L220.121 200.483L221.862 199.342L224.321 199.652L225.545 202.115L228.108 202.993L230.037 204.466L231.863 203.803H234.227L237.297 202.62L239.839 203.45L241.006 204.757L245.131 205.177L241.487 203.573L239.379 201.487L241.487 200.5L242.562 199.552L245.037 197.586L244.549 195.06L244.868 192.698L243.372 191.924L243.222 191.175L241.738 191.012L239.36 188.714Z" fill="#FF6565" stroke="#646464" stroke-width="1.06667"/>
<path id="buenos-aires" fill-rule="evenodd" clip-rule="evenodd" d="M190.844 209.345V213.252H193.234L193.955 214.207H199.416L202.216 215.122H204.459L205.391 215.838H207.14L208.804 215.007L210.227 216.031L211.401 215.952L211.567 214.959L210.328 213.777L209.988 212.804L210.33 211.437L211.735 209.772L212.357 207.985L214.672 209.941H216.105L217.704 208.867L219.385 209.225L221.903 207.569H223.765L225.425 208.566L226.308 208.387L227.109 208.883L228.281 208.524L228.454 210.069L229.267 210.911L231.28 210.405L231.948 209.543L233.173 208.527L234.081 209.035L234.709 209.883L235.434 210.038L236.151 208.919L237.491 209.127L238.067 210.061L238.622 209.871L238.844 208.722L238.562 207.31L237.956 205.826L239.068 205.154L241.555 205.505L245.131 205.177L241.006 204.757L239.839 203.45L237.297 202.62L234.227 203.803H231.863L230.037 204.466L228.108 202.993L225.545 202.115L224.321 199.652L221.862 199.342L220.121 200.483L216.182 198.535L214.648 198.202L213.395 199.246L212.323 196.806L209.813 193.334L208.381 193.308L206.269 189.893L204.668 188.824L201.653 187.862L199.367 184.287L199.806 182.909L198.804 181.419L195.125 180.721L193.1 177.347L191.807 177.072L189.254 175.501H185.228L182.806 175.239L179.648 174.535L178.559 172.424L174.493 167.826L173.775 169.996L173.132 169.371L170.812 171.653L170.26 171.412L169.289 173.456L166.77 175.037L164.101 177.309L162.838 176.346L160.694 176.179L158.2 177.88L156.074 180.356L158.69 184.54L158.54 188.615L156.542 191.318L156.219 193.197L154.204 195.362L152.206 194.363L148.829 196.507L152.688 201.482L150.506 204.615L150.311 208.335L151.889 209.611L153.189 211.119L154.475 213.306L153.072 215.605L153.543 216.841L153.806 218.734L152.577 224.972L150.719 226.728L151.559 229.298L151.422 230.596L152.719 231.467H154.486L155.19 232.272L155.284 234.296L158.156 237.098L170.12 239.698L171.092 238.997V237.597L169.979 235.735L175.162 232.038L175.954 230.557L174.784 229.432L172.699 228.938L171.109 228.286L168.007 225.368L164.228 222.313L163.8 220.877L164.674 219.99L166.003 220.256L166.815 219.208L167.081 217.026L167.211 213.69L168.172 212.722H170.848L174.18 212.989L175.012 208.955L176.565 210.944L180.696 209.965L181.59 210.552H182.79L184.269 212.421L185.274 208.235L186.725 205.452L189.44 204.871L191.26 205.809L190.844 209.345Z" fill="#FF6565" stroke="#646464" stroke-width="1.06667"/>
<path id="candelaria" fill-rule="evenodd" clip-rule="evenodd" d="M172.056 132.487L174.537 133.654L171.536 130.932L169.177 130.726L170.725 128.867L158.897 126.903L155.795 127.153L138.164 124.284L137.32 128.459L134.648 135.063L119.909 161.895L119.537 163.431L119.956 165.155L129.944 193.206L130.327 194.761L130.552 197.188L130.697 201.393L134.183 202.829L139.986 207.157L143.858 209.971L144.407 212.581H145.922L146.373 214.096H147.792L149.895 214.689V215.888L151.209 216.841H153.543L153.072 215.605L154.475 213.306L153.189 211.119L151.889 209.611L150.311 208.335L150.506 204.615L152.688 201.482L148.829 196.507L152.206 194.363L154.204 195.362L156.219 193.197L156.542 191.318L158.54 188.616L158.69 184.54L156.074 180.356L158.2 177.88L160.694 176.179L162.839 176.346L164.101 177.309L166.77 175.037L169.289 173.456L170.26 171.412L170.812 171.654L173.132 169.371L173.775 169.996L174.493 167.826L175.68 167.083L178.306 162.776L179.292 159.887L177.319 159.454V158.815L177.111 158.384V157.601L176.628 156.687L177.181 155.002L163.593 145.452L171.594 133.609L172.056 132.487Z" fill="#FF6565" stroke="#646464" stroke-width="1.06667"/>
</g>
<g id="sororiental">
<path id="poblado" fill-rule="evenodd" clip-rule="evenodd" d="M114.202 299.815H115.293L118.877 302.613L119.892 306.589L120.099 308.649L121.59 310.149L126.998 313.582H129.125L130.507 315.304L136.534 319.179L139.446 320.065L142.262 319.664L143.761 320.729L145.066 320.607L147.261 322.478L148.574 324.437L150.884 325.381L152.026 326.406L154.145 325.893L156.824 327.337L159.48 326.28H162.18L165.01 326.889L165.786 325.516L166.679 324.648L167.928 324.053L168.191 322.72L167.893 321.002V319.568L168.467 318.558L167.948 317.14L167.652 315.345L168.483 314.437L170.125 314.051L171.28 315L172.456 315.368L175.666 315.611L176.04 314.251L175.52 312.741L175.732 310.577L174.197 310.162L172.712 309.296L173.041 304.825L174.306 305.485L176.092 303.42L178.071 302.239L178.819 301.276L180.045 300.279L180.608 299.111L179.668 297.97L179.466 296.471L178.985 294.958L178.51 293.798L179.253 292.49L178.705 291.31L177.919 290.036L178.788 288.951L179.062 287.506L179.56 285.831L180.481 284.418L180.712 282.073L183.24 280.02L182.69 278.483L183.448 276.968L183.598 275.121L184.425 273.65V272.518L184.04 271.506L184.69 270.684L185.312 268.675L186.497 268.153L187.258 267.407L187.158 266.649L186.579 265.608L186.818 264.005L188.151 263.295L190.087 262.969L191.262 261.898L191.695 260.736V258.549L191.85 255.906L192.506 254.258L193.24 251.297L194.116 250.227L193.751 248.428L194.136 247.16L192.956 245.998L194.067 244.517L194.404 243.016L194.77 239.327L191.531 241.104L188.456 241.385L185.088 241.008L185.221 238.675L182.361 236.148L180.061 233.85L178.394 232.901L175.954 230.557L175.162 232.038L169.979 235.735L171.092 237.597V238.997L170.12 239.698L158.156 237.098L155.284 234.296L155.19 232.272L154.486 231.467H152.719L151.422 230.596L151.559 229.298L150.719 226.728L152.577 224.972L153.806 218.734L153.543 216.841H151.209L149.895 215.888V214.689L147.792 214.096H146.373L145.922 212.581H144.407L143.858 209.971L139.986 207.157L134.183 202.829L130.697 201.393L120.874 273.076L116.247 287.435L113.781 296.576L113.028 298.737L114.202 299.815Z" fill="#BC98F3" stroke="#646464" stroke-width="1.06667"/>
</g>
<g id="centroccidental">
<path id="laureles-estadio" fill-rule="evenodd" clip-rule="evenodd" d="M57.1728 173.547L56.254 177.279L48.6156 175.963L44.6556 175.791L42.6041 177.838H39.3L36.9725 178.41H33.0457L35.6202 178.961L36.3527 179.337L37.6429 179.036L38.2555 179.288L39.235 180.285L39.9357 180.478L40.4182 180.386L41.1666 179.918L41.915 180.165L42.7211 180.649L46.2174 183.161L47.6737 186.945L54.2342 187.245L57.5629 187.19L67.0722 187.034L74.4692 186.646L73.507 184.15L124.587 182.414L118.441 165.155L118.114 163.423L118.395 161.895L132.203 136.757L126.962 138.185L124.733 138.501L121.029 138.348L118.133 137.686L115.404 136.953L112.158 134.582L108.943 132.761L108.085 130.431L105.856 128.566L105.216 126.124L104.15 124.882L102.347 123.459L99.3577 121.794L96.1301 119.561L92.3204 115.625L90.1431 113.227L89.0148 110.86L87.5758 109.274L85.6197 110.899L77.6332 146.505L76.6146 148.835L79.179 147.907L79.8855 148.055L82.3719 147.497L81.3981 158.504L74.8925 158.66L72.3035 157.617L68.9272 157.503L67.848 174.288L58.5338 172.093L57.1728 173.547Z" fill="#84B6F4" stroke="#646464" stroke-width="1.06667"/>
<path id="la-america" fill-rule="evenodd" clip-rule="evenodd" d="M37.5952 160.925L37.1762 163.556L38.5964 165.067L35.5928 168.468L37.3669 169.841L38.3508 172.691L38.9908 175.877H36.737L34.8545 177.897L33.0457 178.41H36.9725L39.3 177.838H42.6041L44.6556 175.791L48.6156 175.963L56.254 177.279L57.1728 173.547L58.5338 172.093L67.848 174.288L68.9272 157.503L72.3035 157.617L74.8925 158.66L81.3981 158.504L82.3719 147.497L79.8855 148.055L79.179 147.907L76.6146 148.835L77.6332 146.505L85.6197 110.899L84.6401 108.393L82.866 108.677L82.8241 109.384L81.4689 109.237L79.6789 109.767L78.8077 113.164L77.6332 112.349L76.9296 114.49L76.3213 114.945L75.9616 113.357L75.2855 112.322L73.4694 111.397L72.9984 113.003L74.2395 113.432L73.5633 113.805L73.6717 115.827L71.9669 115.212L69.2219 114.987L66.2848 116.62L64.3647 116.863L65.1376 117.831L63.4964 119.717V121.217L61.0014 119.354L62.3551 122.714L63.5658 124.355L62.8203 126.63L63.521 127.695L63.1728 130.205L69.4083 130.111L70.723 127.682L71.8874 128.426L73.1054 137.851L69.6105 134.829L65.7271 136.53L64.1076 136.791L58.385 139.318L56.5155 139.214L53.8514 139.86L50.345 140.194L48.8468 140.019L45.4083 145.212L43.9795 144.527L42.7312 145.43L43.6819 146.145L42.2198 146.991L38.462 149.941L34.1654 150.705L32.15 153.346L32.0648 154.168L32.8449 154.689L33.8822 154.483L35.6318 152.125L37.5548 151.909L38.462 152.749L39.3318 154.213L41.8138 155.77L41.8095 157.254L37.5952 160.925Z" fill="#84B6F4" stroke="#646464" stroke-width="1.06667"/>
<path id="san-javier" fill-rule="evenodd" clip-rule="evenodd" d="M7.44063 130.27L6.33397 131.885L5.79074 133.288L6.08546 134.254L5.98866 134.959L3.71178 137.159L1.00001 139.17V139.681L3.63087 141.129L3.92848 142.31L5.32264 143.19L7.04622 143.84L8.08498 144.93L8.96049 147.25L8.55452 147.855L7.88849 147.77L7.19503 147.279L5.33422 146.065L4.38068 146.15L2.89115 146.367L2.13556 147.349L1.99542 148.858L2.15 149.857L2.16446 151.294L2.55741 152.444L3.80857 153.612H5.21286L6.93208 154.067L7.29183 155.637L7.17336 156.738L5.95833 156.936L5.04236 158.043L3.61641 158.533L1.55045 157.724L3.50951 160.794L6.23572 162.524H4.37491L2.21069 161.314L2.85939 163.042L4.08306 164.966L4.79965 166.354L5.78208 166.946L7.10835 167.128H8.70623L8.93594 168.098L9.34335 168.633L10.1495 169.14L11.3414 169.263L12.3152 168.855L12.8497 168.141L12.9595 167.209L13.4883 166.926L15.2697 167.225L17.3501 167.714L19.3568 168.055H20.9229L21.0602 168.602L20.6123 169.397L21.1425 170.091L22.5006 170.82L23.2475 171.797L22.2102 173.249L23.0857 173.816V174.275L21.3058 175.2L22.0224 176.265L22.1509 177.332H22.8271L24.2805 176.426L25.0418 177.172L24.6994 177.932V178.569L25.6877 179.426L26.4808 179.526L27.0977 179.403L28.0989 178.35L28.3171 177.387L29.1044 177.286L29.6722 177.611L31.091 178.121L33.0457 178.41L34.8545 177.897L36.737 175.877H38.9908L38.3508 172.691L37.3669 169.841L35.5928 168.468L38.5964 165.067L37.1762 163.556L37.5952 160.925L41.8095 157.254L41.8138 155.77L39.3317 154.213L38.462 152.749L37.5547 151.909L35.6318 152.125L33.8822 154.483L32.8449 154.689L32.0647 154.168L32.1499 153.346L34.1654 150.705L38.462 149.941L42.2198 146.991L43.6818 146.145L42.7312 145.43L43.9794 144.527L45.4083 145.212L48.8468 140.019L50.345 140.194L53.8513 139.86L56.5154 139.214L58.3849 139.318L64.1075 136.791L65.7271 136.53L69.6105 134.829L73.1053 137.851L71.8874 128.426L70.723 127.682L69.4082 130.111L63.1728 130.205L63.5209 127.695L62.8203 126.63L63.5657 124.355L62.3551 122.714L61.0013 119.354L63.4964 121.217V119.717L65.1376 117.831L64.3647 116.863L66.2847 116.62L69.2219 114.987L71.9669 115.212L73.6717 115.827L73.5633 113.805L74.2395 113.432L72.9984 113.003L73.4694 111.397L75.2854 112.322L75.9616 113.357L76.3213 114.945L76.9295 114.49L77.6331 112.349L78.8077 113.164L79.6789 109.767L81.4689 109.237L82.8241 109.384L82.866 108.677L84.6401 108.393L85.6196 110.899L87.5758 109.274L84.8438 106.942H81.755L79.9144 105.143L76.9353 104.552L75.6798 102.737L72.409 102.522L67.1429 99.8456L66.2212 101.44H65.1867L60.1764 98.3182L58.2896 98.8348L56.3276 98.1306L56.0343 103.95L54.2457 107.941L49.5807 107.334L43.494 111.047L38.6888 110.553L37.679 111.383L35.6188 111.581L36.5203 112.256L37.0462 113.312L35.8889 113.686V114.756L36.7254 116.896L38.2265 119.591L39.0327 121.731L40.4644 123.224L40.9715 124.47V127L41.3168 127.432L41.4902 128.514L41.8586 129.347V130.448L41.4584 130.783V131.171L41.7806 131.474L41.9958 131.914L41.4353 133.113L40.8921 135.372L40.372 135.991L39.69 136.095L39.2826 135.692L38.7134 134.304L37.2282 131.707L36.6879 131.085L36.201 131.211L35.6101 131.464L35.129 131.27L34.8805 130.916L34.8112 130.02L33.7753 129.779L33.6409 128.985L33.2711 128.601L32.6209 128.802L31.783 128.949L30.8627 128.422L30.4249 127.821L29.7054 127.031L28.8459 127.501L28.0845 127.871L26.111 127.984L25.5966 128.698L25.0794 129.558L23.9857 129.903L21.7825 128.653L21.4185 128.974L21.5774 129.548L21.4069 129.799L20.9431 129.853L19.8899 129.77L19.6299 129.864L19.7816 130.272L21.2133 131.932L21.4401 132.652L21.2408 134.316L21.0009 135.038L21.2263 135.434L22.2622 136.81V137.332L21.4156 138.68L21.011 140.552L20.5906 140.666L17.0915 138.276L16.1408 138.149L15.5355 137.829L13.9419 135.995L12.581 133.98L12.4192 132.693L11.6607 132.061L10.9383 131.383L10.502 130.431L10.3272 129.458L9.7262 127.925L10.2246 127.305L9.84613 127.028L9.22633 127.075L8.4664 127.411L7.75847 127.322L6.26462 126.794L5.60581 126.625L4.9138 126.729L4.67108 127.292L5.40934 127.802L7.42619 129.053L7.64723 129.637L7.44063 130.27Z" fill="#84B6F4" stroke="#646464" stroke-width="1.06667"/>
</g>
<g id="suroccidental">
<path id="guayabal" fill-rule="evenodd" clip-rule="evenodd" d="M78.448 265.307L76.1957 265.726L76.7967 266.657L74.9272 268.062L78.3801 272.693L78.0536 273.585L79.0664 274.322L80.449 274.745L81.7478 275.199L82.174 275.619L82.3892 276.141L83.5002 276.835L84.8063 277.808L85.0923 278.704L85.2166 279.756L84.7528 281.602L85.1444 282.436L86.4128 282.976L86.9199 283.447L86.7971 284.523L85.7035 285.774L85.1747 286.553L85.5012 287.225L86.8333 287.605L88.4672 287.867L90.159 288.235L92.9141 288.945L94.2592 287.055L96.7369 286.312L102.272 283.67L103.663 283.366L106.763 285.933L114.795 287.243L119.36 273.076L129.183 201.393L129.171 201.062L127.243 200.435L127.347 199.087L119.115 197.127L113.597 196.826L113.552 199.922L110.572 200.428L104.736 200.334L103.401 200.629L97.3914 200.653L96.1532 201.463L95.3673 205.154L93.6134 206.423L93.9341 208V212.944L92.8636 219.301L86.9416 248.487L86.8145 250.136L85.2498 247.54L84.1301 248.639L81.1497 249.526L79.6067 248.85L78.9392 249.718L79.205 251.399L78.9941 258.347L80.3464 260.539L78.9334 262.074L76.4962 262.395L78.448 265.307Z" fill="#FDFD96" stroke="#646464" stroke-width="1.06667"/>
<path id="belen" fill-rule="evenodd" clip-rule="evenodd" d="M36.6157 225.192L37.4984 226.755L38.6845 227.432L41.0004 227.318L42.0276 228.196L43.2297 227.917L44.5978 227.339L45.7406 227.25L46.4717 227.874L46.645 229.149L47.4786 229.994L50.4461 229.869L52.0975 231.47L52.3561 232.246L53.0712 233.014L52.6465 234.463L53.7213 235.466L55.1748 235.911L55.3048 237.348L54.7399 238.419L55.6472 239.289V241.691L55.1256 242.417L54.6532 243.21L53.8499 244.04L53.743 244.725L54.1981 245.169L55.5056 245.806L58.96 249.061V250.191L59.3905 250.782L60.1995 251.242L59.3168 251.814L56.7264 253.272L56.3912 253.535L56.2641 254.028L56.7466 254.635L59.808 256.468L60.4943 256.88L60.659 257.501L59.9106 258.313L58.5439 259.426L57.5499 258.764L56.6339 258.607L55.2759 258.874L53.5754 258.762L51.2263 259.519L50.2785 259.666L51.4936 260.338L53.6722 260.546L54.9855 261.323L56.3002 262.816L57.4748 263.274L58.5887 264.089L59.821 266.61L60.3541 266.926L60.9667 266.591L61.9939 264.955L63.2364 264.716L64.3806 265.011L65.0524 265.505L64.9701 266.539L66.672 268.831L66.9537 269.452L66.8468 270.445L66.9855 271.223L67.6688 271.755L68.5978 271.331H69.3072L69.7608 271.866L69.8995 272.538L70.801 272.347L71.6491 271.863L72.5795 272.188L74.0329 272.288L76.0165 272.132L77.2893 272.777L78.0536 273.585L78.3801 272.693L74.9272 268.062L76.7967 266.657L76.1957 265.726L78.448 265.307L76.4962 262.395L78.9334 262.074L80.3464 260.539L78.9941 258.347L79.205 251.399L78.9392 249.718L79.6067 248.85L81.1497 249.526L84.1301 248.639L85.2498 247.54L86.8145 250.136L86.9416 248.487L92.8636 219.301L93.9341 212.944V208L93.6134 206.423L95.3673 205.154L96.1532 201.463L97.3914 200.653L103.401 200.629L104.736 200.334L110.572 200.428L113.552 199.922L113.597 196.826L119.115 197.127L127.347 199.087L127.243 200.435L129.171 201.062L129.038 197.188L128.813 194.761L128.43 193.206L124.587 182.414L73.507 184.15L74.4692 186.646L67.0722 187.034L57.5629 187.19L54.2342 187.245L47.6737 186.945L46.2174 183.161L42.7211 180.649L42.542 182.023L41.915 183.031V183.661L42.9754 183.915L43.8899 184.495L44.5718 184.996L45.4459 185.945L45.5701 186.411L45.5008 186.771L45.2422 186.998L44.8507 187.072L44.4866 186.91L43.9058 186.502L43.0563 186.384L42.357 186.75L41.5047 186.066H40.0989L38.4433 185.417H36.4943L35.1464 184.385L33.9313 182.94L33.6713 181.486L31.8148 180.444H31.1213L30.2949 180.03L28.752 179.919H27.7132L27.2292 180.341L27.1324 180.856L28.5844 180.99L30.1375 181.445L30.9581 181.944L31.5461 182.805V183.701L31.1705 184.634L30.7081 185.984L30.2733 187.456L29.4859 188.26L28.2969 188.562L26.4115 188.344L25.3308 189.02L23.811 189.223L23.2706 189.965L23.5914 190.572L24.6041 190.353L26.0229 190.684L27.1469 191.07L28.5064 191.207L29.9641 191.013L31.5345 190.886L32.4996 191.204L34.778 192.727L35.7835 192.605L36.6113 193.214L38.0113 193.803L39.5673 193.658L40.5352 194.147L40.2434 195.377L39.1237 196.575L38.9244 197.617L37.9723 198.669L38.0705 199.156L38.4909 199.705L38.4086 200.558L39.6193 201.302L40.5526 201.554L42.0305 201.71L42.8569 201.856L42.4871 202.224L41.5552 202.369L40.6552 202.618L38.5314 202.81L37.5345 203.347L37.1401 203.808L37.4912 204.368L38.5126 204.783L39.5022 205.388L39.9963 206.186L39.1512 206.764L38.1861 207.63L38.5415 209.105L38.9258 209.539L40.5584 209.395L41.4165 210.072L41.5336 210.915L42.7269 211.112L44.7683 210.486L45.4676 210.925L46.4587 210.354L46.5583 209.74L47.0019 208.9L48.0493 208.183L49.5518 208.01L50.1658 205.712L51.1512 205.424L51.6481 205.906L51.9559 206.316L52.2535 207.409L52.3344 208.806L52.1827 210.465H53.6303L54.1663 211.457L53.639 212.344L52.2694 211.945L51.8128 212.83L52.9267 214.056L52.1957 215.109H50.4259L49.0158 214.365L48.1663 215.992L49.1748 216.562V217.13H48.0363L47.6491 217.828L49.0967 219.069L48.1331 221.279L46.4673 219.853L46.1755 221.554L45.0515 221.779L43.9246 220.567L37.9116 221.503L36.6951 221.211L35.0308 220.533L32.6773 220.976L32.8709 222.129L33.8114 223.2L34.3879 224.012L35.3443 224.995L36.6157 225.192Z" fill="#FDFD96" stroke="#646464" stroke-width="1.06667"/>
</g>
<g id="nororiental">
<path id="aranjuez" fill-rule="evenodd" clip-rule="evenodd" d="M181.174 74.9472L178.865 74.6817L174.849 70.3491L174.453 69.9223L170.688 69.5992L168.975 70.0354L165.808 69.2277L164.329 65.8444L162.388 64.964L161.007 65.2834L158.234 63.9966L158.112 64.5197L157.648 65.5708L156.649 66.7344L155.202 67.8982L153.947 69.2146L153.312 70.4415L153.124 71.7596L152.594 75.4653L152.1 77.3507L151.648 78.1708L150.87 78.9786L149.928 79.8196L148.094 81.2613L147.409 81.8492L147.011 82.6239L146.79 83.4544L146.64 87.8303L146.465 88.8994L146.219 89.755L138.164 124.284L155.795 127.153L158.897 126.903L170.725 128.867L169.177 130.726L171.536 130.932L174.537 133.654L175.396 131.062L175.539 128.685L176.108 122.503L177.703 111.825L181.108 92.9566L181.923 88.8625L182.028 86.4847L181.495 85.113L181.851 77.5804L182.379 76.5473L181.174 74.9472Z" fill="#77DD77" stroke="#646464" stroke-width="1.06667"/>
<path id="manrique" fill-rule="evenodd" clip-rule="evenodd" d="M208.613 131.921L210.647 132.331L212.64 131.801L213.816 128.399L213.248 126.127L213.388 123.667L213.955 121.98L215.41 121.23L216.811 121.158L217.978 120.194L219.593 120.731H222.151L221.095 119.52L220.78 118.002L219.446 116.732L219.275 115.625L223.463 111.721L220.413 109.757L219.3 108.423L217.934 106.199L219.029 103.271L222.235 101.296L222.024 100.908L219.66 99.8222L219.351 98.7268L220.327 97.1574L219.486 95.9505L219.16 94.2153L218.241 93.0794V92.016L216.5 91.581L214.155 92.2818L212.643 92.1052L213.209 89.5054L212.856 88.043L214.745 85.5064L217.217 85.5983L217.613 82.0265L219.076 79.5161L216.84 78.0038L216.134 76.734L211.356 76.9647L209.17 76.0349H204.915L202.359 77.6437L200.545 77.1787L195.083 79.4801L192.698 78.4882L187.832 79.1803L182.379 76.5473L181.85 77.5804L181.495 85.113L182.028 86.4847L181.923 88.8625L181.107 92.9566L177.703 111.825L176.108 122.503L175.539 128.685L175.396 131.062L174.537 133.654L175.55 134.378L176.728 134.657L177.559 134.543L181.826 132.603L185.034 130.422L187.455 130.705L190.383 132.327L192.016 133.506H194.69L195.265 131.406L197.636 131.013L200.071 132.471L205.046 133.052L207.672 132.422L208.613 131.921Z" fill="#77DD77" stroke="#646464" stroke-width="1.06667"/>
<path id="popular" fill-rule="evenodd" clip-rule="evenodd" d="M201.684 34.603L201.149 36.0554L196.34 35.0018L194.82 36.9084L192.875 35.7126L192.785 35.1268H191.825L191.972 36.7701L190.771 38.9655L191.347 40.4136L190.927 43.5939L186.174 52.6493L187.182 54.8888L189.707 55.6515L190.549 56.6244L189.339 57.6499L188.408 57.6276L187.093 59.8622L187.725 61.9916L188.987 62.4121L188.54 63.674L182.584 64.7155L180.481 68.2441L176.811 69.1321L174.849 70.3491L178.865 74.6817L181.174 74.9472L182.379 76.5473L187.832 79.1803L192.698 78.4882L195.083 79.4801L200.545 77.1787L202.359 77.6437L204.915 76.0349H209.17L211.356 76.9647L216.134 76.734L216.84 78.0039L219.076 79.5161L220.476 77.5529L220.21 70.6816L218.63 69.7742L220.056 67.89L219.727 66.6489L218.637 65.4078L220.031 63.9388L219.325 61.3751L220.488 59.5078L219.496 58.0283L217.639 57.1972L219.09 54.4286L220.343 53.0991L220.092 49.4475L218.228 47.5334L215.58 42.4653L214.28 42.8234L212.344 40.1483L210.453 38.5918L207.477 37.6467L206.359 36.5704L205.566 35.2956L203.636 35.8297L201.684 34.603Z" fill="#77DD77" stroke="#646464" stroke-width="1.06667"/>
<path id="santa-cruz" fill-rule="evenodd" clip-rule="evenodd" d="M192.785 35.1268L192.875 35.7126L194.82 36.9084L196.34 35.0018L201.149 36.0554L201.684 34.603L200.144 34.5439L198.067 32.4125L197.558 31.5685L196.796 32.0759L194.925 32.0358L192.808 30.922L190.838 30.7214L189.342 28.9732L188.049 29.5065L184.428 28.3997L180.421 27.3427L177.243 26.1297L173.787 22.7441L172.963 21.8223L172.707 21.2904L172.361 21.737L171.733 22.7565L171.666 23.7569L172.25 25.8244L172.121 30.5211L172.652 34.6588L172.67 37.1601L171.981 39.5809L170.026 44.0913L169.485 46.3876L167.357 50.4062L166.659 52.027L166.264 54.055L165.767 55.175L164.638 56.1997L163.211 57.2691L161.294 58.2485L160.371 58.7213L159.684 59.3951L159.182 60.2539L158.831 61.4444L158.234 63.9966L161.007 65.2834L162.388 64.964L164.329 65.8444L165.808 69.2277L168.975 70.0354L170.688 69.5992L174.453 69.9223L174.849 70.3491L176.811 69.1321L180.481 68.2441L182.584 64.7155L188.54 63.674L188.987 62.4121L187.725 61.9916L187.093 59.8622L188.408 57.6276L189.339 57.6499L190.549 56.6245L189.707 55.6515L187.182 54.8888L186.174 52.6493L190.927 43.5939L191.347 40.4136L190.771 38.9655L191.972 36.7701L191.825 35.1268H192.785Z" fill="#77DD77" stroke="#646464" stroke-width="1.06667"/>
</g>
<path id="linea-central" d="M178.324 1L176.914 5.42646V10.4924L176.681 14.1565L175.244 17.2418L171.905 21.5582L171.275 22.5778L171.209 23.578L171.792 25.6454L171.665 30.3414L172.292 34.4213L172.356 36.9334L171.621 39.4173L169.735 43.9547L169.078 46.4157L167.055 50.257L166.344 51.9013L165.808 53.8731L165.31 54.993L164.182 56.0175L162.755 57.0869L160.919 58.1072L160.112 58.6142L159.327 59.2907L158.849 60.1359L158.482 61.2342L157.658 64.3367L157.295 65.3735L156.277 66.5962L154.804 67.9707L153.661 69.162L153.088 70.291L152.668 71.5757L152.139 75.2813L151.646 77.1665L151.251 77.9919L150.516 78.8187L149.574 79.6686L147.978 81.1002L147.171 81.7951L146.625 82.5331L146.335 83.2694L146.186 87.6449L146.012 88.7138L145.764 89.5695L137.71 124.094L136.791 128.207L134.03 134.955L119.672 161.778L119.417 163.262L119.645 164.92L129.492 193.011L129.874 194.566L130.1 196.992L130.244 201.196L120.422 272.872L115.796 287.231L113.329 296.37L112.363 299.146L110.728 300.691L101.845 307.64L99.185 310.696L91.8909 322.217" stroke="#6B6B6B" stroke-width="3.77953" stroke-linejoin="bevel"/>
</g>
</svg>
